# xmcd CD database file
#
# Track frame offsets:
#	150
#	28053
#	38328
#	47407
#	59294
#	70297
#	81872
#	93003
#	124468
#	140073
#	156562
#	179655
#	191282
#	204884
#	215133
#
# Disc length: 3023 seconds
#
# Revision: 0
# Processed by: cddbd v1.5.2PL0 Copyright (c) Steve Scherf et al.
# Submitted via: CDex 1.51
#
DISCID=d70bcd0f
DTITLE=Ray Charles - Juke Box Hits cd3
DYEAR=2006
DGENRE=Blues
TTITLE0=What'd I Say
TTITLE1=Ain't that Fine
TTITLE2=All to Myself Alone
TTITLE3=Can't you see Darling
TTITLE4=I Wonder who's Kissing her Now
TTITLE5=Baby Tell me what Have I
TTITLE6=Let's have a Ball
TTITLE7=Come Rain or Come Shine
TTITLE8=You are my Sunshine
TTITLE9=I Believe to my Soul
TTITLE10=I'm Gonna move to the Outskirts of Town
TTITLE11=Guitar Blues
TTITLE12=Baby let me Hold your Hand
TTITLE13=Sitting on top of the World
TTITLE14=Roll with my Baby
EXTD=YEAR: 2006
EXTT0=
EXTT1=
EXTT2=
EXTT3=
EXTT4=
EXTT5=
EXTT6=
EXTT7=
EXTT8=
EXTT9=
EXTT10=
EXTT11=
EXTT12=
EXTT13=
EXTT14=
PLAYORDER=
